<svg width="22" height="40" viewBox="0 0 22 40" fill="none" xmlns="http://www.w3.org/2000/svg">
<path fill-rule="evenodd" clip-rule="evenodd" d="M11.8677 16.0843C13.6765 14.5509 17.6063 12.011 19.0461 15.3581C19.9619 17.488 19.3976 20.742 17.4143 22.1208C14.9285 23.8487 12.4681 21.5024 11.263 19.4206C10.9158 18.8214 10.6165 18.1913 10.3519 17.542C10.8292 17.0281 11.3322 16.5383 11.8677 16.0843ZM7.74696 0.571865C6.72767 5.83138 6.85721 11.7559 8.62325 16.9341C7.83175 17.8808 7.15359 18.8375 6.6265 19.6748C3.56486 24.539 1.76993 30.9945 2.03895 36.7535C2.06856 37.3829 2.80321 37.5875 3.24701 37.3208C3.01803 37.4976 2.78681 37.6716 2.55334 37.8429C2.13134 37.2162 1.82111 36.5433 1.61056 35.7868C1.48206 35.3245 1.47851 34.7972 1.31686 34.3529C1.22065 34.0883 1.01998 34.095 0.954388 33.7923C0.93348 33.6958 0.795721 33.6479 0.748432 33.7564C0.619186 34.0536 0.36282 34.1497 0.246021 34.4524C0.0618234 34.9291 0.178897 35.811 0.257331 36.2912C0.45266 37.4872 0.964897 38.589 1.66015 39.5727C1.95067 39.9835 2.48119 40.0185 2.8874 39.7755C3.8833 39.1799 4.79477 38.4429 5.64636 37.6574C6.38398 36.9767 7.266 36.251 7.65166 35.3085C7.95444 34.5697 7.14773 33.8998 6.47634 34.3333C5.65696 34.8621 5.07383 35.7387 4.35392 36.3995C4.04531 36.6829 3.72353 36.9459 3.39684 37.2024C3.48693 37.1048 3.55104 36.9775 3.57169 36.8177C4.23823 31.6557 4.7329 26.7317 7.205 22.0327C7.81174 20.8783 8.52036 19.7711 9.32785 18.743C9.37551 18.8527 9.41881 18.9654 9.46812 19.0749C11.0968 22.671 15.4625 26.5041 19.1037 22.7848C21.6885 20.1454 22.2478 13.2359 17.7206 12.183C14.828 11.5102 11.9556 13.4021 9.7119 15.7233C9.21966 14.1049 8.88679 12.4243 8.58694 10.8172C7.96137 7.46713 7.81338 4.01068 7.96043 0.61007C7.96614 0.475228 7.77427 0.430373 7.74696 0.571865Z" fill="black"/>
</svg>
