<svg width="27" height="28" viewBox="0 0 27 28" fill="none" xmlns="http://www.w3.org/2000/svg">
<path d="M13.5005 27.0254C14.3809 27.0254 15.1025 26.3773 15.2247 25.4601C16.4353 17.2913 17.5481 16.1541 25.399 15.2614C26.3038 15.1514 27.0009 14.3932 27.0009 13.5127C27.0009 12.62 26.3161 11.8863 25.4112 11.7518C17.6093 10.6634 16.6433 9.70958 15.2247 1.55311C15.0657 0.648172 14.3687 0 13.5005 0C12.6078 0 11.8984 0.648172 11.7518 1.56527C10.5656 9.72186 9.45281 10.8591 1.61417 11.7518C0.684784 11.8741 0 12.6078 0 13.5127C0 14.3932 0.660336 15.1269 1.58972 15.2614C9.40379 16.3742 10.3576 17.3158 11.7518 25.4724C11.9352 26.3895 12.6444 27.0254 13.5005 27.0254Z" fill="#0C0C0C"/>
</svg>
